<svg width="236" height="122" viewBox="0 0 236 122" fill="none" xmlns="http://www.w3.org/2000/svg">
<path d="M10.9026 119.061L7.90263 115.055H6.82876V119.061H5.77194V110.334H6.82876V114.118H7.28899L10.7833 110.334H12.0447L8.51626 114.169L12.164 119.061H10.9026ZM20.4832 114.697C20.4832 115.618 20.317 116.413 19.9847 117.084C19.6523 117.754 19.1963 118.271 18.6168 118.635C18.0372 118.999 17.3753 119.18 16.631 119.18C15.8866 119.18 15.2247 118.999 14.6452 118.635C14.0656 118.271 13.6097 117.754 13.2773 117.084C12.9449 116.413 12.7787 115.618 12.7787 114.697C12.7787 113.777 12.9449 112.981 13.2773 112.311C13.6097 111.641 14.0656 111.124 14.6452 110.76C15.2247 110.396 15.8866 110.214 16.631 110.214C17.3753 110.214 18.0372 110.396 18.6168 110.76C19.1963 111.124 19.6523 111.641 19.9847 112.311C20.317 112.981 20.4832 113.777 20.4832 114.697ZM19.4605 114.697C19.4605 113.942 19.3341 113.304 19.0812 112.784C18.8312 112.264 18.4918 111.871 18.0628 111.604C17.6366 111.337 17.1594 111.203 16.631 111.203C16.1026 111.203 15.6239 111.337 15.1949 111.604C14.7687 111.871 14.4293 112.264 14.1764 112.784C13.9264 113.304 13.8014 113.942 13.8014 114.697C13.8014 115.453 13.9264 116.091 14.1764 116.611C14.4293 117.131 14.7687 117.524 15.1949 117.791C15.6239 118.058 16.1026 118.192 16.631 118.192C17.1594 118.192 17.6366 118.058 18.0628 117.791C18.4918 117.524 18.8312 117.131 19.0812 116.611C19.3341 116.091 19.4605 115.453 19.4605 114.697ZM22.2602 110.334H23.5216L26.4875 117.578H26.5898L29.5557 110.334H30.817V119.061H29.8284V112.43H29.7432L27.0159 119.061H26.0614L23.3341 112.43H23.2489V119.061H22.2602V110.334ZM39.4644 110.334V119.061H38.4076V111.271H34.0099V119.061H32.9531V110.334H39.4644ZM40.8462 119.061V118.089H41.1018C41.4655 118.089 41.7482 117.973 41.9499 117.74C42.1516 117.507 42.2964 117.131 42.3845 116.611C42.4754 116.091 42.5365 115.402 42.5678 114.544L42.7212 110.334H48.0393V119.061H46.9825V111.271H43.7268L43.5905 114.749C43.5564 115.663 43.4726 116.442 43.3391 117.084C43.2055 117.726 42.9712 118.216 42.6359 118.554C42.3007 118.892 41.8121 119.061 41.17 119.061H40.8462ZM50.1509 119.061V110.334H55.4179V111.271H51.2077V114.22H55.1452V115.158H51.2077V118.124H55.4861V119.061H50.1509ZM62.4534 119.061L59.4534 115.055H58.3795V119.061H57.3227V110.334H58.3795V114.118H58.8398L62.3341 110.334H63.5955L60.067 114.169L63.7148 119.061H62.4534ZM71.6931 113.061H70.6363C70.5738 112.757 70.4644 112.49 70.3082 112.26C70.1548 112.03 69.9673 111.837 69.7457 111.68C69.5269 111.521 69.284 111.402 69.017 111.322C68.7499 111.243 68.4715 111.203 68.1817 111.203C67.6533 111.203 67.1746 111.337 66.7457 111.604C66.3195 111.871 65.98 112.264 65.7272 112.784C65.4772 113.304 65.3522 113.942 65.3522 114.697C65.3522 115.453 65.4772 116.091 65.7272 116.611C65.98 117.131 66.3195 117.524 66.7457 117.791C67.1746 118.058 67.6533 118.192 68.1817 118.192C68.4715 118.192 68.7499 118.152 69.017 118.072C69.284 117.993 69.5269 117.875 69.7457 117.719C69.9673 117.56 70.1548 117.365 70.3082 117.135C70.4644 116.902 70.5738 116.635 70.6363 116.334H71.6931C71.6136 116.78 71.4687 117.179 71.2585 117.531C71.0482 117.883 70.7869 118.183 70.4744 118.43C70.1619 118.675 69.811 118.861 69.4218 118.989C69.0354 119.116 68.6221 119.18 68.1817 119.18C67.4374 119.18 66.7755 118.999 66.196 118.635C65.6164 118.271 65.1604 117.754 64.8281 117.084C64.4957 116.413 64.3295 115.618 64.3295 114.697C64.3295 113.777 64.4957 112.981 64.8281 112.311C65.1604 111.641 65.6164 111.124 66.196 110.76C66.7755 110.396 67.4374 110.214 68.1817 110.214C68.6221 110.214 69.0354 110.278 69.4218 110.406C69.811 110.534 70.1619 110.722 70.4744 110.969C70.7869 111.213 71.0482 111.511 71.2585 111.864C71.4687 112.213 71.6136 112.612 71.6931 113.061ZM73.4009 119.061V110.334H74.4577V114.22H79.1111V110.334H80.1679V119.061H79.1111V115.158H74.4577V119.061H73.4009ZM83.0678 113.999H85.5564C86.1814 113.999 86.7084 114.101 87.1374 114.305C87.5692 114.51 87.8959 114.798 88.1175 115.17C88.3419 115.543 88.4541 115.981 88.4541 116.487C88.4541 116.993 88.3419 117.439 88.1175 117.825C87.8959 118.212 87.5692 118.514 87.1374 118.733C86.7084 118.952 86.1814 119.061 85.5564 119.061H82.2837V110.334H83.3405V118.141H85.5564C85.9541 118.141 86.2908 118.061 86.5663 117.902C86.8447 117.74 87.055 117.533 87.197 117.28C87.3419 117.024 87.4143 116.754 87.4143 116.47C87.4143 116.053 87.2538 115.693 86.9328 115.392C86.6118 115.088 86.153 114.936 85.5564 114.936H83.0678V113.999ZM90.3632 110.334V119.061H89.3064V110.334H90.3632ZM92.479 119.061V110.334H97.746V111.271H93.5358V114.22H97.4733V115.158H93.5358V118.124H97.8142V119.061H92.479ZM110.049 113.061H108.992C108.929 112.757 108.82 112.49 108.664 112.26C108.51 112.03 108.323 111.837 108.101 111.68C107.882 111.521 107.639 111.402 107.372 111.322C107.105 111.243 106.827 111.203 106.537 111.203C106.009 111.203 105.53 111.337 105.101 111.604C104.675 111.871 104.336 112.264 104.083 112.784C103.833 113.304 103.708 113.942 103.708 114.697C103.708 115.453 103.833 116.091 104.083 116.611C104.336 117.131 104.675 117.524 105.101 117.791C105.53 118.058 106.009 118.192 106.537 118.192C106.827 118.192 107.105 118.152 107.372 118.072C107.639 117.993 107.882 117.875 108.101 117.719C108.323 117.56 108.51 117.365 108.664 117.135C108.82 116.902 108.929 116.635 108.992 116.334H110.049C109.969 116.78 109.824 117.179 109.614 117.531C109.404 117.883 109.142 118.183 108.83 118.43C108.517 118.675 108.166 118.861 107.777 118.989C107.391 119.116 106.978 119.18 106.537 119.18C105.793 119.18 105.131 118.999 104.551 118.635C103.972 118.271 103.516 117.754 103.184 117.084C102.851 116.413 102.685 115.618 102.685 114.697C102.685 113.777 102.851 112.981 103.184 112.311C103.516 111.641 103.972 111.124 104.551 110.76C105.131 110.396 105.793 110.214 106.537 110.214C106.978 110.214 107.391 110.278 107.777 110.406C108.166 110.534 108.517 110.722 108.83 110.969C109.142 111.213 109.404 111.511 109.614 111.864C109.824 112.213 109.969 112.612 110.049 113.061ZM111.756 110.334H112.796V117.203H112.881L117.654 110.334H118.677V119.061H117.62V112.209H117.535L112.779 119.061H111.756V110.334ZM127.814 113.061H126.757C126.695 112.757 126.586 112.49 126.429 112.26C126.276 112.03 126.088 111.837 125.867 111.68C125.648 111.521 125.405 111.402 125.138 111.322C124.871 111.243 124.593 111.203 124.303 111.203C123.774 111.203 123.296 111.337 122.867 111.604C122.441 111.871 122.101 112.264 121.848 112.784C121.598 113.304 121.473 113.942 121.473 114.697C121.473 115.453 121.598 116.091 121.848 116.611C122.101 117.131 122.441 117.524 122.867 117.791C123.296 118.058 123.774 118.192 124.303 118.192C124.593 118.192 124.871 118.152 125.138 118.072C125.405 117.993 125.648 117.875 125.867 117.719C126.088 117.56 126.276 117.365 126.429 117.135C126.586 116.902 126.695 116.635 126.757 116.334H127.814C127.735 116.78 127.59 117.179 127.38 117.531C127.169 117.883 126.908 118.183 126.595 118.43C126.283 118.675 125.932 118.861 125.543 118.989C125.157 119.116 124.743 119.18 124.303 119.18C123.559 119.18 122.897 118.999 122.317 118.635C121.737 118.271 121.282 117.754 120.949 117.084C120.617 116.413 120.451 115.618 120.451 114.697C120.451 113.777 120.617 112.981 120.949 112.311C121.282 111.641 121.737 111.124 122.317 110.76C122.897 110.396 123.559 110.214 124.303 110.214C124.743 110.214 125.157 110.278 125.543 110.406C125.932 110.534 126.283 110.722 126.595 110.969C126.908 111.213 127.169 111.511 127.38 111.864C127.59 112.213 127.735 112.612 127.814 113.061ZM129.045 111.271V110.334H135.59V111.271H132.846V119.061H131.789V111.271H129.045ZM137.221 119.061V110.334H142.488V111.271H138.278V114.22H142.215V115.158H138.278V118.124H142.556V119.061H137.221ZM144.393 110.334H145.654L148.62 117.578H148.723L151.688 110.334H152.95V119.061H151.961V112.43H151.876L149.149 119.061H148.194L145.467 112.43H145.382V119.061H144.393V110.334ZM155.853 113.999H158.342C158.967 113.999 159.494 114.101 159.923 114.305C160.354 114.51 160.681 114.798 160.903 115.17C161.127 115.543 161.239 115.981 161.239 116.487C161.239 116.993 161.127 117.439 160.903 117.825C160.681 118.212 160.354 118.514 159.923 118.733C159.494 118.952 158.967 119.061 158.342 119.061H155.069V110.334H156.126V118.141H158.342C158.739 118.141 159.076 118.061 159.351 117.902C159.63 117.74 159.84 117.533 159.982 117.28C160.127 117.024 160.199 116.754 160.199 116.47C160.199 116.053 160.039 115.693 159.718 115.392C159.397 115.088 158.938 114.936 158.342 114.936H155.853V113.999ZM163.148 110.334V119.061H162.092V110.334H163.148ZM168.639 110.334H169.9L172.866 117.578H172.969L175.935 110.334H177.196V119.061H176.207V112.43H176.122L173.395 119.061H172.44L169.713 112.43H169.628V119.061H168.639V110.334ZM186.679 114.697C186.679 115.618 186.512 116.413 186.18 117.084C185.848 117.754 185.392 118.271 184.812 118.635C184.233 118.999 183.571 119.18 182.826 119.18C182.082 119.18 181.42 118.999 180.84 118.635C180.261 118.271 179.805 117.754 179.473 117.084C179.14 116.413 178.974 115.618 178.974 114.697C178.974 113.777 179.14 112.981 179.473 112.311C179.805 111.641 180.261 111.124 180.84 110.76C181.42 110.396 182.082 110.214 182.826 110.214C183.571 110.214 184.233 110.396 184.812 110.76C185.392 111.124 185.848 111.641 186.18 112.311C186.512 112.981 186.679 113.777 186.679 114.697ZM185.656 114.697C185.656 113.942 185.529 113.304 185.277 112.784C185.027 112.264 184.687 111.871 184.258 111.604C183.832 111.337 183.355 111.203 182.826 111.203C182.298 111.203 181.819 111.337 181.39 111.604C180.964 111.871 180.625 112.264 180.372 112.784C180.122 113.304 179.997 113.942 179.997 114.697C179.997 115.453 180.122 116.091 180.372 116.611C180.625 117.131 180.964 117.524 181.39 117.791C181.819 118.058 182.298 118.192 182.826 118.192C183.355 118.192 183.832 118.058 184.258 117.791C184.687 117.524 185.027 117.131 185.277 116.611C185.529 116.091 185.656 115.453 185.656 114.697ZM188.456 119.061V110.334H189.512V114.22H194.166V110.334H195.223V119.061H194.166V115.158H189.512V119.061H188.456ZM196.861 111.271V110.334H203.407V111.271H200.662V119.061H199.605V111.271H196.861ZM204.376 119.061H203.268L206.473 110.334H207.563L210.768 119.061H209.66L207.052 111.714H206.984L204.376 119.061ZM204.785 115.652H209.251V116.589H204.785V115.652ZM217.292 110.334V119.061H216.235V110.334H217.292ZM211.394 119.061L214.224 114.51L211.633 110.334H212.911L215.179 114.203H218.366L220.633 110.334H221.911L219.304 114.527L222.133 119.061H220.923L218.554 115.192H214.974L212.588 119.061H211.394ZM223.876 119.061H222.768L225.973 110.334H227.063L230.268 119.061H229.16L226.552 111.714H226.484L223.876 119.061ZM224.285 115.652H228.751V116.589H224.285V115.652Z" fill="black"/>
<path fill-rule="evenodd" clip-rule="evenodd" d="M0 69.7144V28.6327H16.1837V53.3752L0 69.7144Z" fill="black"/>
<path fill-rule="evenodd" clip-rule="evenodd" d="M36.1415 59.2749L59.7551 28.9537V28.6328H41.3521L16.3801 59.1402L42.3249 90.8777H59.7551V89.7108L36.1415 59.2749Z" fill="black"/>
<path fill-rule="evenodd" clip-rule="evenodd" d="M127.415 57.3667V94.527H143.598V68.9935L127.415 57.3667Z" fill="black"/>
<path fill-rule="evenodd" clip-rule="evenodd" d="M127.417 26.3852L164.779 55.2279L234.597 0.00226627L234.83 0.00227604L234.829 19.7714L164.807 75.1419L127.416 46.9963L127.417 26.3852Z" fill="#FE8630"/>
<path fill-rule="evenodd" clip-rule="evenodd" d="M123.245 24.816C122.002 24.0543 120.714 23.3555 119.388 22.7239C110.922 18.6928 101.344 17.6324 92.2017 19.7139C83.0589 21.7953 74.8843 26.8972 68.9976 34.1959C63.1109 41.4945 59.8557 50.5641 59.7574 59.9403C59.6591 69.3165 62.7235 78.4523 68.4559 85.8728C74.1883 93.2932 82.2541 98.5654 91.3512 100.838C100.448 103.111 110.046 102.251 118.595 98.3986C120.202 97.6742 121.755 96.852 123.245 95.9389V72.9024L123.072 72.8264C120.548 77.6859 116.459 80.3322 111.467 82.5823C106.474 84.8323 100.869 85.3342 95.556 84.007C90.2432 82.6797 85.5326 79.6007 82.1849 75.267C78.8371 70.9334 77.0474 65.598 77.1048 60.1222C77.1622 54.6463 79.0633 49.3496 82.5012 45.0871C85.9391 40.8246 90.7132 37.845 96.0527 36.6294C101.392 35.4138 106.986 36.0331 111.93 38.3873C116.874 40.7415 120.65 43.6396 123.072 48.5509L123.245 48.4785V24.816Z" fill="black"/>
</svg>
